<?xml version="1.0" encoding="utf-8"?>
<!-- Generator: Adobe Illustrator 16.0.0, SVG Export Plug-In . SVG Version: 6.00 Build 0)  -->
<!DOCTYPE svg PUBLIC "-//W3C//DTD SVG 1.1//EN" "http://www.w3.org/Graphics/SVG/1.1/DTD/svg11.dtd">
<svg version="1.1" id="Layer_1" xmlns="http://www.w3.org/2000/svg" xmlns:xlink="http://www.w3.org/1999/xlink" x="0px" y="0px"
	 width="800px" height="600px" viewBox="0 0 800 600" enable-background="new 0 0 800 600" xml:space="preserve">
<g>
	<rect x="23" y="82" fill="#FFFFFF" width="754" height="419"/>
	<path fill-rule="evenodd" clip-rule="evenodd" d="M215.814,232.121h11.717c7.988,0,16.509,0.531,22.901,4.257
		c12.246,6.391,20.235,19.171,20.235,33.017c0.531,9.053-2.13,17.574-6.922,24.5c-3.197,3.722-5.327,5.854-6.925,6.919
		c-1.596,1.603-4.26,3.197-5.857,3.729c-6.391,3.728-14.38,5.323-21.834,5.323h-24.498v33.556h-20.77V232.121H215.814
		L215.814,232.121z M511.912,343.422v-36.746c0-4.26,0-9.592,0.53-13.321c1.067-6.918,5.86-12.242,11.719-14.907
		c4.793-2.127,10.652-2.127,15.976-2.127v-14.911c0-1.599,0-3.194,0-4.262c-6.922-0.53-13.845,0.532-19.172,3.195
		c-4.258,2.133-6.922,5.858-9.585,9.052l0,0l-0.531-10.648v-0.531h-19.173v17.574v66.566l-0.531,1.066H511.912L511.912,343.422z
		 M736.649,232.121v11.714V267.8l0,0l-0.532-0.532c-5.328-5.326-12.25-9.053-20.239-10.12c-17.573-2.661-34.08,5.328-43.134,19.705
		c-6.925,10.116-7.989,24.493-4.796,36.742c3.729,14.915,16.512,27.157,31.955,30.359c12.249,2.665,25.027,0,33.549-7.462
		c1.066-0.532,2.131-2.126,3.197-2.658c0,3.197,0,6.388,0.532,9.588l0,0h19.703v-0.535v-10.654v-47.391v-35.684v-17.037H736.649
		L736.649,232.121z M372.383,343.422h20.77V232.121h-20.77V343.422L372.383,343.422z M637.063,343.422h20.771v-86.805h-20.771
		V343.422L637.063,343.422z M459.191,343.422h19.703l0.531-2.67l-0.531-39.406v-9.586v-5.323
		c-0.532-5.855-2.661-11.715-6.391-16.511c-4.26-5.323-9.588-8.517-16.508-10.647c-8.523-3.197-19.135-3.02-27.692-1.063
		c-7.62,1.739-13.362,4.214-17.261,6.558l0.015,17.895c0,0,10.382-5.158,20.542-7.639c6.252-1.528,13.41-2.066,18.538-0.307
		c6.757,2.322,8.521,9.054,8.521,14.912h-10.12H436.82c-7.986,0.532-16.506,1.599-23.428,5.324
		c-5.86,3.197-10.12,9.053-11.719,15.438c-2.127,11.187,1.599,21.836,9.588,28.229c6.922,5.859,17.042,6.931,27.162,5.859
		c7.984-0.531,15.441-4.264,20.235-10.651l0,0L459.191,343.422L459.191,343.422z M455.461,319.989
		c-3.729,5.323-10.115,7.45-17.037,8.521c-6.395,0-12.781-1.602-15.979-7.457c-1.6-3.197-1.6-8.521,1.063-11.719
		c3.729-5.323,10.119-5.855,15.979-6.388h6.922l12.251-0.53v0.53C458.659,309.334,458.659,315.19,455.461,319.989L455.461,319.989z
		 M363.331,308.803c0.533-4.26,0.533-9.054,0-13.313c-1.597-15.439-11.716-28.756-25.563-34.616
		c-8.519-3.726-19.171-4.792-28.756-3.193c-14.378,2.663-26.095,11.715-31.421,22.901c-5.857,11.179-5.326,21.835-4.26,28.222
		c3.195,19.168,19.172,34.084,39.943,35.683c7.986,0.532,15.444,0,23.432-3.192C350.549,335.96,360.668,323.18,363.331,308.803
		L363.331,308.803z M335.639,319.989c-6.391,5.855-15.977,8.521-24.498,5.855c-9.053-2.126-16.508-10.654-18.107-20.239
		c-1.063-7.989,0.533-15.439,5.325-21.296c6.391-7.989,16.511-11.718,26.628-8.521c9.586,2.658,17.042,11.18,18.107,21.295
		C344.16,305.605,341.496,314.126,335.639,319.989L335.639,319.989z M628.01,308.803c1.063-4.26,1.063-9.054,0.531-13.313
		c-2.13-15.439-12.25-28.756-25.563-34.616c-8.521-3.726-19.173-4.792-29.288-3.193c-14.381,2.663-25.563,11.715-30.89,22.901
		c-6.388,11.179-5.856,21.835-4.794,28.222c3.197,19.168,19.173,34.084,39.944,35.683c8.521,0.532,15.975,0,23.965-3.192
		C615.227,335.96,625.879,323.18,628.01,308.803L628.01,308.803z M600.315,319.989c-5.858,5.855-15.442,8.521-24.495,5.855
		c-9.054-2.126-15.979-10.654-17.574-20.239c-1.067-7.989,0.531-15.439,5.323-21.296c5.858-7.989,16.511-11.718,26.626-8.521
		c9.054,2.658,16.512,11.18,17.574,21.295C608.838,305.605,606.707,314.126,600.315,319.989L600.315,319.989z M236.052,290.166
		c1.597-0.532,3.729-1.599,5.324-3.197c5.859-4.792,9.057-13.313,6.924-21.835c-2.13-5.855-6.391-11.184-12.248-13.313
		c-4.794-1.596-10.652-1.596-15.444-1.596h-15.443l0,0v41.534h17.574C227.531,291.76,232.856,291.232,236.052,290.166
		L236.052,290.166z M729.727,319.989c-6.391,6.388-17.574,9.053-26.627,5.855c-1.598-1.063-3.728-2.126-5.326-2.665
		c-2.663-2.127-5.324-4.792-7.455-7.989c-3.729-6.388-4.264-15.441-2.131-22.898c2.131-9.049,10.648-16.503,20.236-17.57
		c9.585-1.599,18.638,2.661,23.964,10.12c4.262,6.391,5.328,14.907,3.729,22.898C735.583,312.532,732.92,316.792,729.727,319.989
		L729.727,319.989z M637.063,249.158h20.771v-17.037h-20.771V249.158L637.063,249.158z"/>
	<g>
		
			<rect x="41.607" y="271.826" transform="matrix(0.7071 -0.7071 0.7071 0.7071 -186.7214 125.2009)" fill="#FDCA0A" width="32.307" height="32.308"/>
		
			<rect x="64.36" y="294.578" transform="matrix(0.7071 -0.7071 0.7071 0.7071 -196.1483 147.9588)" fill="#A2CE5C" width="32.308" height="32.311"/>
		<polygon fill="#6AC074" points="126.068,333.445 103.224,356.285 80.38,333.443 103.224,310.597 		"/>
		
			<rect x="64.392" y="249.041" transform="matrix(0.7072 -0.707 0.707 0.7072 -163.9193 134.6067)" fill="#F8961D" width="32.306" height="32.308"/>
		
			<rect x="87.147" y="271.796" transform="matrix(0.7071 -0.7071 0.7071 0.7071 -173.3597 157.392)" fill="#90A591" width="32.308" height="32.309"/>
		
			<rect x="109.855" y="294.506" transform="matrix(0.7072 -0.7071 0.7071 0.7072 -182.7539 180.0713)" fill="#0BBBB5" width="32.307" height="32.306"/>
		
			<rect x="87.193" y="226.243" transform="matrix(0.7071 -0.7071 0.7071 0.7071 -141.1262 144.0593)" fill="#F1564A" width="32.305" height="32.308"/>
		
			<rect x="109.946" y="248.994" transform="matrix(0.7071 -0.7071 0.7071 0.7071 -150.5597 166.841)" fill="#946CAB" width="32.307" height="32.309"/>
		
			<rect x="132.655" y="271.705" transform="matrix(0.7071 -0.7071 0.7071 0.7071 -159.9588 189.5217)" fill="#1A90D0" width="32.305" height="32.31"/>
	</g>
</g>
</svg>
